<svg xmlns="http://www.w3.org/2000/svg" xmlns:xlink="http://www.w3.org/1999/xlink" width="64.029" height="140.665" viewBox="0 0 64.029 140.665">
  <defs>
    <linearGradient id="linear-gradient" x1="0.5" x2="0.5" y2="1" gradientUnits="objectBoundingBox">
      <stop offset="0" stop-color="#cf1a3a"/>
      <stop offset="1" stop-color="#340410"/>
    </linearGradient>
  </defs>
  <g id="logo1" transform="translate(-599.008 -186.003)">
    <path id="Intersection_1" data-name="Intersection 1" d="M-1518.294-8.1q2.08-5.811,4.6-12.3,3.521-9.445,7.51-18.7c.006-.014,0-.02-.014-.022a.3.3,0,0,0-.051,0,.036.036,0,0,0-.037.025,71.893,71.893,0,0,1-6.848,12.5.381.381,0,0,1-.041-.18.381.381,0,0,0,.041.18l-12.1,17.148q-.363.516-.14-.073,0-.009.177-.33l6.354-12.118c8.591-17.034,16.395-34.412,24.451-51.7a.181.181,0,0,0-.008-.181l-.931-1.535c.061.2-.045.106-.316-.269l-.393.578-11.185,17.728a1.07,1.07,0,0,1-.244.428c-.067.065-.112.051-.134-.043q-1.991-8.67-4.129-17.3c-.145-.584-.36-1.3-.57-1.946a.229.229,0,0,1,.025-.2l6.979-11.175,9.505-15.023c.08-.128.163-.13.25-.008l9.448,13.3,9.1,12.865a.144.144,0,0,1,.006.177l-6.167,10.069-3.028,4.919c-.03,0-.06,0-.089,0,.029,0,.058,0,.089,0-8.654,14.108-17.276,28.209-25.658,42.482l-6.2,10.821q-.375.655-.448.655T-1518.294-8.1Zm6.606-11.777a.386.386,0,0,1,.019.119.386.386,0,0,0-.019-.119.367.367,0,0,1-.022-.124.363.363,0,0,0,.02.124Zm.279-1.331a.814.814,0,0,1,.118.4.814.814,0,0,0-.118-.4l0,0Zm-.563.186h-.009Zm-.117-.064-.25-.377Zm.673-.133-.009-.01.007.01Zm-.039-.028h0Zm-.946-.26h0Zm-.275-8.435c.288.219.651.451.653.791,0-.34-.365-.572-.653-.791l-.03-.02.03.021Zm-.326-.031Zm.189-.02Zm-.565-.313a.48.48,0,0,1-.02-.14.483.483,0,0,0,.02.14Zm-.287-.8a.614.614,0,0,1,.271.54.614.614,0,0,0-.272-.54l0,0Zm-.065-.027h-.012s.007,0,.011,0Zm27.454-30.147Zm-.605-.283c.016.02.033.041.051.059-.017-.019-.035-.038-.051-.059a.2.2,0,0,1-.046-.122.2.2,0,0,0,.045.122Zm-1.582-2.079c.386.774,1.642.492,1.641,1.4,0-.9-1.255-.622-1.641-1.4a.333.333,0,0,1-.034-.143.333.333,0,0,0,.033.143Zm-1.661-2.9a2.441,2.441,0,0,1,1.217,1.861.262.262,0,0,0,.1.171.751.751,0,0,1,.316.627.751.751,0,0,0-.316-.627.263.263,0,0,1-.1-.171,2.441,2.441,0,0,0-1.217-1.861.548.548,0,0,1-.334-.462.548.548,0,0,0,.332.462Zm-3-4.092a9.5,9.5,0,0,0,2.665,3.249.129.129,0,0,1,.054.1.129.129,0,0,0-.054-.1,9.5,9.5,0,0,1-2.665-3.249l-.009-.018a.066.066,0,0,0,.008.018Zm-.009-.018-.011-.021a.076.076,0,0,0,.009.021Zm-.013-.025-.006-.012a.081.081,0,0,0,.005.012Zm-.82-.258a.232.232,0,0,1-.041,0,.231.231,0,0,0,.039,0Zm-.614-.552a.818.818,0,0,0,.523.535l.036.011-.036-.011a.818.818,0,0,1-.523-.535.3.3,0,0,1-.014-.086.3.3,0,0,0,.011.086Zm.985.468Zm-.713-1.344a.208.208,0,0,1,.012.066.208.208,0,0,0-.012-.066,1.116,1.116,0,0,1-.066-.361,1.115,1.115,0,0,0,.064.361Zm-3.354-1.384Zm.8-.639v0h0Zm-4.345-4.4a.9.9,0,0,1,.527.592.249.249,0,0,0,.142.161,1.69,1.69,0,0,1,.721.627.188.188,0,0,0,.143.085,1.028,1.028,0,0,1,.927.666.188.188,0,0,0,.181.126.492.492,0,0,1,.5.391.263.263,0,0,0,.2.187l1.028.228a.142.142,0,0,1,.113.14.142.142,0,0,0-.113-.14l-1.028-.228a.263.263,0,0,1-.2-.187.492.492,0,0,0-.5-.391.188.188,0,0,1-.181-.126,1.028,1.028,0,0,0-.927-.666.188.188,0,0,1-.143-.086,1.69,1.69,0,0,0-.721-.627.249.249,0,0,1-.142-.161.9.9,0,0,0-.527-.592c-.089-.039-.133-.092-.134-.158,0,.066.044.118.132.158Zm5.439,2.949Zm-6.535-4.413a1.292,1.292,0,0,0,.855.57c.19.035.291.092.305.169a.24.24,0,0,1,0,.041.24.24,0,0,0,0-.041c-.014-.077-.116-.134-.305-.169a1.292,1.292,0,0,1-.855-.57.24.24,0,0,1-.046-.14.239.239,0,0,0,.045.14Zm-1.415-2.663a.176.176,0,0,0,.126.092l.283.051a.138.138,0,0,1,.114.122,3.53,3.53,0,0,0,.859,1.785.236.236,0,0,1,.042.132.236.236,0,0,0-.042-.132,3.53,3.53,0,0,1-.859-1.785.138.138,0,0,0-.114-.122l-.283-.051a.176.176,0,0,1-.126-.092.38.38,0,0,1-.053-.177.378.378,0,0,0,.051.177Zm-1.264-3.046a.379.379,0,0,1,.1.175.48.48,0,0,0,.167.257.1.1,0,0,1,.029.037l.926,2.127a.256.256,0,0,1,.021.1.257.257,0,0,0-.021-.1l-.926-2.127a.1.1,0,0,0-.029-.037.479.479,0,0,1-.167-.257.381.381,0,0,0-.1-.175.843.843,0,0,1-.291-.636.842.842,0,0,0,.288.635Zm-.291-1.128a.225.225,0,0,1,.05.139.225.225,0,0,0-.05-.139.309.309,0,0,1-.081-.18.309.309,0,0,0,.078.18Zm.053-.478c.034.025.052.048.052.071,0-.022-.017-.046-.052-.071l-.006,0Zm-.064-.022h0Zm-17.1,36.684-.646-.946-5.613-8L-1540.963-77.4a.143.143,0,0,1,0-.169q18.143-28.742,36.016-57.655,3.949-6.333,7.889-12.673a.247.247,0,0,1,.2-.1l-.375,1.13q-2.646,7.349-5.753,14.518a.34.34,0,0,0-.234,0,1.064,1.064,0,0,0-.077.167q-2.355,5.66-5.1,11.124,2.752-5.466,5.1-11.124a1.064,1.064,0,0,1,.077-.167.34.34,0,0,1,.234,0q-2.449,5.812-5.255,11.44a161.459,161.459,0,0,1-9.318,16.387l-1.342,1.956a.49.49,0,0,0-.22-.177l-.008,0,.008,0a.49.49,0,0,1,.22.177,1.479,1.479,0,0,0-.33.542l1.708-2.455q6.172-8.847,12.388-17.661c3.817-5.409,7.891-10.674,11.946-15.878.1-.12.112-.11.051.031-6.521,14.949-13.2,29.8-21.138,44.072l-.442-.09a.112.112,0,0,1-.1-.12.112.112,0,0,0,.1.12l.442.09-5.2,9.465c-1.428,2.2-2.934,4.6-2.938,7.049,0-2.452,1.51-4.849,2.938-7.049l5.914-9.448,5.206-7.887q4.819-7.454,10.079-14.6a.994.994,0,0,1,.23-.232.061.061,0,0,1,.071,0,.061.061,0,0,1,.019.069l-3.683,8.542q-3.115,6.734-6.8,13.166a.1.1,0,0,1-.089-.1.1.1,0,0,0,.089.1l-5.354,9.32-5.224,8.589-1.417,2.455a.207.207,0,0,0,0,.216l1.212,2.154,3.436,5.444,6.508,9.933c.037.059.021.081-.047.071l-5.716-.851q-.073.107-.556.006l-2.119-.307a.169.169,0,0,0-.179.083l-4.284,6.816a.126.126,0,0,1-.107.059.124.124,0,0,1-.107-.057Zm12.195-6.112a.224.224,0,0,0,.189-.108.224.224,0,0,0,.008-.218.224.224,0,0,1-.008.218.224.224,0,0,1-.19.108Zm-9.1-13.713a.255.255,0,0,1,.132.092l2.282,3.088a.453.453,0,0,0,.137.126c.326.2.407.588.613.835a4.846,4.846,0,0,1,.556.768c.855,1.555,2.2,3.3,2.913,4.389q1.31,1.994,2.655,4.068l.006.01-.006-.01q-1.347-2.074-2.655-4.068c-.711-1.085-2.058-2.834-2.913-4.389a4.846,4.846,0,0,0-.556-.768c-.206-.246-.287-.633-.613-.835a.453.453,0,0,1-.137-.126l-2.282-3.088a.255.255,0,0,0-.132-.092.152.152,0,0,1-.094-.087.152.152,0,0,0,.094.087Zm-9.175,9.718Zm-.178-.08.005.005-.005-.005a.534.534,0,0,0-.411-.169.163.163,0,0,0-.163.163.163.163,0,0,1,.163-.163.535.535,0,0,1,.41.168Zm.428-.163a.251.251,0,0,0,0-.029.254.254,0,0,1,0,.029Zm1.1-.975Zm.014,0a.6.6,0,0,0,.509-.475.6.6,0,0,1-.51.475Zm-.375-.159,0,0Zm-.058-.023Zm3.646-3.357h0Zm-.03-.058v-.018c0,.006,0,.012,0,.018Zm0-.114a.023.023,0,0,0,0,0s0,0,0,0Zm-.013-.065h0Zm8.021-.494h0Zm-3.619-4.142Zm-.8-.414a1.167,1.167,0,0,0,.786.413h0a1.167,1.167,0,0,1-.786-.413l0,0Zm.812.414a.079.079,0,0,0,.077-.075.079.079,0,0,1-.078.075Zm.13-.178,0,0,0,0Zm-.01-.009-.009,0,.008,0Zm-1.054-.287Zm7.056-16.147a.738.738,0,0,1,.05.271.738.738,0,0,0-.05-.271,3.528,3.528,0,0,1-.262-1.365,3.527,3.527,0,0,0,.262,1.365Zm-3.428-10.124a.987.987,0,0,1,.279.668.339.339,0,0,0,.075.2c.683.859,1.651.911,1.652,2.213,0-1.3-.969-1.354-1.652-2.213a.339.339,0,0,1-.075-.2.987.987,0,0,0-.279-.668.151.151,0,0,1-.042-.1A.151.151,0,0,0-1516.828-97.386Zm8.272,2.231a.29.29,0,0,1,.034.134.29.29,0,0,0-.034-.134l-.007-.013.006.013Zm-.279-.081h-.017l.016,0Zm.136-.028Zm-.641-.9.417.865-.417-.865a.1.1,0,0,1-.012-.043.1.1,0,0,0,.013.043Zm-.352-1.734a.146.146,0,0,1,.112.14,2.991,2.991,0,0,0,.4,1.34.087.087,0,0,1,.012.043.088.088,0,0,0-.012-.043,2.991,2.991,0,0,1-.4-1.34.146.146,0,0,0-.112-.14q-.225-.068-.224-.246,0,.178.226.246Zm-7.409-.67a.663.663,0,0,1,.381.568.663.663,0,0,0-.381-.568q-.053-.032-.053-.063c0,.021.018.042.053.063Zm-1.73-2.726a8.527,8.527,0,0,0,1.1,1.767c.218.289.2.566.688.678a.061.061,0,0,1,.048.06.061.061,0,0,0-.048-.06c-.486-.112-.47-.389-.688-.678a8.527,8.527,0,0,1-1.1-1.767,4.3,4.3,0,0,0-.407-.731,4.307,4.307,0,0,1,.407.731Zm10.665-.535Zm-11.37-.529h0Zm-3.27-3.237.069.277a.1.1,0,0,0,.106.083h.682a.137.137,0,0,1,.136.088c.566,1.276,2.028,1.4,2.207,2.7-.179-1.3-1.641-1.421-2.207-2.7a.137.137,0,0,0-.136-.088h-.682a.1.1,0,0,1-.106-.083l-.069-.277a.12.12,0,0,1,0-.03.123.123,0,0,0,.006.032Zm3.639,2.842h-.008Zm-3.376-3.431a.382.382,0,0,1,.062.211.382.382,0,0,0-.062-.211.116.116,0,0,1-.023-.063.117.117,0,0,0,.025.065Zm14.228-14.723Z" transform="translate(2140 334)" fill="url(#linear-gradient)"/>
  </g>
</svg>
