<svg xmlns="http://www.w3.org/2000/svg" width="1483.397" height="378.163" viewBox="0 0 1483.397 378.163">
  <g id="logo" transform="translate(-324.603 -350.905)">
    <g id="melio18_a_simple_logo_for_freelance_developer_60e31561-a0e0-47ed-9edb-9bad120c0859" transform="translate(99.33 124.068)">
      <g id="Groupe_1" data-name="Groupe 1">
        <path id="Tracé_1" data-name="Tracé 1" d="M362.91,287.16c-73.33,72.18-81.06,190.42-17.55,271.88a.735.735,0,0,0,.64.31l80-.47a1.11,1.11,0,0,0,1.03-1.51c-.56-1.44-2.59-1.43-3.6-1.76-9.41-3.13-18.07-10.12-11.91-21.15a1.255,1.255,0,0,0,.12-.89c-1.89-8.42,1.25-11.9,6.48-19.71q9.38-13.99,18.87-28.02a.885.885,0,0,0,.06-.89,19.11,19.11,0,0,1-1.31-13.71.69.69,0,0,0-.36-.79c-19.76-9.72-32.87-27.86-32.86-49.95,0-17.13-1.28-36.57.75-52.74,3.11-24.71,15.58-47.91,35.39-63.24,25.22-19.51,54.28-22.65,85.41-20.32,49.23,3.7,86.07,39.13,91.63,88.32,1.54,13.55,1.06,27.33,1.04,41.05q-.01,11.98-1.42,18.12c-5.81,25.27-27.2,42.65-53.14,43.37a.73.73,0,0,0-.68.94,10.179,10.179,0,0,0,3.97,5.48.9.9,0,0,0,.83.1q6.16-2.3,8.76-2.3,33.32-.06,66.62-.01c8.92.01,14.51,4.26,11.39,13.89q-9.78,30.15-19.61,60.28a24.722,24.722,0,0,1-2.18,4.92q-.5.84.48.85,17.7.2,35.4-.2a53.208,53.208,0,0,1,8.23.73.865.865,0,0,0,.84-.34c60.56-77.95,55.08-189.69-11.24-262.24-79.64-87.13-216.79-93.97-302.08-10" fill="none" stroke="#17747c" stroke-width="2"/>
        <path id="Tracé_2" data-name="Tracé 2" d="M713.36,277.3l1.91.25a1.415,1.415,0,0,0,1.086-.316,1.435,1.435,0,0,0,.514-1.014l1.29-19.08a2.37,2.37,0,0,0-.69-1.85q-10.79-10.81-21.94-21.64a7.894,7.894,0,0,0-2.45-1.83c-2.44-.79-4.77,2.86-2.3,5.16q8.57,7.97,21.28,20.71a16.622,16.622,0,0,1,2.07,2.56.87.87,0,0,1,.14.59l-1.52,15.7a.621.621,0,0,0,.61.76" fill="none" stroke="#17747c" stroke-width="2"/>
        <path id="Tracé_3" data-name="Tracé 3" d="M300.22,265.52a49.093,49.093,0,0,1,.77,9.01c-.02,4.36,4.7,3.82,4.27.21a113.052,113.052,0,0,0-2.29-13.14,2.39,2.39,0,0,1,.62-2.22l23.72-23.96a.883.883,0,0,0,.26-.87,3.441,3.441,0,0,0-2.75-2.88.97.97,0,0,0-.89.24q-11.7,11.22-22.98,22.88c-2.26,2.34-3.49,4.23-1.12,6.99a1.1,1.1,0,0,1-.82,1.82,6.655,6.655,0,0,1-4.39-1.45,1.58,1.58,0,0,0-2.5,1.71c1.21,3.76,4.7,3.38,7.34,1.36q.62-.47.76.3" fill="none" stroke="#17747c" stroke-width="2"/>
        <path id="Tracé_4" data-name="Tracé 4" d="M725.47,259.27l-2.2-1.6a.69.69,0,0,0-.96.16l-.47.64c-1.872,2.576-2.664,5.194-1.77,5.85l.07.05c.9.653,3.146-.91,5.02-3.49l.47-.64a.69.69,0,0,0-.16-.97" fill="none" stroke="#17747c" stroke-width="2"/>
        <path id="Tracé_5" data-name="Tracé 5" d="M743.85,269.33l-13.9.12a1.15,1.15,0,0,0-1.14,1.16l.01,1.68a2.373,2.373,0,0,0,2.5,2.23l11.24-.1a2.374,2.374,0,0,0,2.46-2.27l-.01-1.68a1.15,1.15,0,0,0-1.16-1.14" fill="none" stroke="#17747c" stroke-width="2"/>
        <path id="Tracé_6" data-name="Tracé 6" d="M289.947,271.086a1.75,1.75,0,0,0-1.784-1.715l-12.5.239a1.75,1.75,0,0,0-1.716,1.784l.023,1.24a1.75,1.75,0,0,0,1.784,1.715l12.5-.239a1.75,1.75,0,0,0,1.716-1.784l-.023-1.24" fill="none" stroke="#17747c" stroke-width="2"/>
        <path id="Tracé_7" data-name="Tracé 7" d="M512.71,292.64c-39.64-3.71-80.63,14.27-95.21,53.74" fill="none" stroke="#17747c" stroke-width="2"/>
        <path id="Tracé_8" data-name="Tracé 8" d="M417.5,346.38a71.577,71.577,0,0,0-4.83,15.36q-.15.82.39.19,15.6-17.95,39.69-17.96,46.77-.01,93.47.06" fill="none" stroke="#185a5e" stroke-width="2"/>
        <path id="Tracé_9" data-name="Tracé 9" d="M546.22,344.03c19.06-.54,36.78-1.48,52.39,11.34a.826.826,0,0,0,.83.16l1.04-.34" fill="none" stroke="#1b3238" stroke-width="2"/>
        <path id="Tracé_10" data-name="Tracé 10" d="M600.48,355.19a14.586,14.586,0,0,0,2.21,3.67q.7.84.36-.2-1.71-5.36-3.56-10.53-14.24-39.79-55.29-51.8" fill="none" stroke="#17747c" stroke-width="2"/>
        <path id="Tracé_11" data-name="Tracé 11" d="M544.2,296.33a160,160,0,0,0-24.42-4.41c-2.67-.27-4.48.27-7.07.72" fill="none" stroke="#1b3238" stroke-width="2"/>
        <path id="Tracé_12" data-name="Tracé 12" d="M544.2,296.33a2.339,2.339,0,0,1-.12.3.244.244,0,0,0,.17.38,80.915,80.915,0,0,1,40.05,27.45c1.21,1.52,2.3,3.54,3.63,5.24,5.46,6.99,9.42,17.21,12.55,25.49" fill="none" stroke="#1d9198" stroke-width="2"/>
        <path id="Tracé_13" data-name="Tracé 13" d="M546.22,344.03c6.57-22.15-1.73-45.61-26.5-50.31" fill="none" stroke="#1e777a" stroke-width="2"/>
        <path id="Tracé_14" data-name="Tracé 14" d="M519.72,293.72l-7.01-1.08" fill="none" stroke="#1d9198" stroke-width="2"/>
        <path id="Tracé_15" data-name="Tracé 15" d="M519.72,293.72q1.35,1.77.11,2.66-.04.03,0,.07l.27.28a.276.276,0,0,1,.05.36,5.132,5.132,0,0,1-3.69,2.62,1.693,1.693,0,0,0-.97.53,77.88,77.88,0,0,1-7.11,6.88.742.742,0,0,0-.22.29.668.668,0,0,0,.03.47.5.5,0,0,1-.13.65,179.36,179.36,0,0,1-15.64,12.28c-1.22.85-1.97,2.65-4.23,1.94a.733.733,0,0,0-.8.19,5.879,5.879,0,0,1-3.44,1.73.919.919,0,0,0-.84.79q-2.01,9.82-12.15,8.1a1.32,1.32,0,0,1-.65-.3c-2.83-2.4-4.01.25-6.21.93a67.678,67.678,0,0,1-7.86,1.8c-4.98.9-11.3,3.31-16.8,4.93-3.79,1.11-6.16,3.71-10.28,4.63-1.06.24-1.5,1.12-2.99.43a1.022,1.022,0,0,0-.97.03,3.59,3.59,0,0,1-4.27-.38q-.46-.38-.7.16-.73,1.62-2.73.59" fill="none" stroke="#1ab8be" stroke-width="2"/>
        <path id="Tracé_16" data-name="Tracé 16" d="M759.736,322.425a2.12,2.12,0,0,0-2.124-2.116l-1.26,0a2.12,2.12,0,0,0-2.116,2.124l.028,15.76a2.12,2.12,0,0,0,2.124,2.116l1.26,0a2.12,2.12,0,0,0,2.116-2.124l-.028-15.76" fill="none" stroke="#8a7967" stroke-width="2"/>
        <path id="Tracé_17" data-name="Tracé 17" d="M266.034,322.469a1.91,1.91,0,0,0-1.9-1.923l-1.58-.011a1.91,1.91,0,0,0-1.924,1.9l-.108,15.6a1.91,1.91,0,0,0,1.9,1.923l1.58.011a1.91,1.91,0,0,0,1.924-1.9l.108-15.6" fill="none" stroke="#8a7967" stroke-width="2"/>
        <path id="Tracé_18" data-name="Tracé 18" d="M256.022,335.429a1.68,1.68,0,0,0-1.674-1.686l-1.88-.006a1.68,1.68,0,0,0-1.686,1.674l-.044,12.54a1.68,1.68,0,0,0,1.674,1.686l1.88.006a1.68,1.68,0,0,0,1.686-1.674l.044-12.54" fill="none" stroke="#8a7967" stroke-width="2"/>
        <path id="Tracé_19" data-name="Tracé 19" d="M769.338,335.841a2.1,2.1,0,0,0-2.129-2.071l-1.48.021a2.1,2.1,0,0,0-2.07,2.129l.163,11.719a2.1,2.1,0,0,0,2.129,2.071l1.48-.021a2.1,2.1,0,0,0,2.071-2.129l-.164-11.719" fill="none" stroke="#8a7967" stroke-width="2"/>
        <path id="Tracé_20" data-name="Tracé 20" d="M415.16,371.16a31.564,31.564,0,0,0-5.83,18.6q-.17,15.84-.01,31.67c.26,25.86,22.41,46.16,48.43,46.17q37.07.01,74.13.43c2.71.03,6.33-.47,9.46-.12" fill="none" stroke="#185a5e" stroke-width="2"/>
        <path id="Tracé_21" data-name="Tracé 21" d="M541.34,467.91a110.336,110.336,0,0,0,22.36,1.07c20.74-1.33,37.95-15.52,44.42-35.18a48.8,48.8,0,0,0,1.91-13.28q.47-15.23.09-30.46a14.277,14.277,0,0,0-.63-4.02" fill="none" stroke="#1b3238" stroke-width="2"/>
        <path id="Tracé_22" data-name="Tracé 22" d="M609.49,386.04c-.94-16.13-18.19-33.9-34.49-34.84q-10.17-.59-36.75-.7-42.78-.16-85.56.12c-15.43.1-28.68,7.93-37.53,20.54" fill="none" stroke="#17747c" stroke-width="2"/>
        <path id="Tracé_23" data-name="Tracé 23" d="M609.49,386.04c-6.03-21.04-21.2-33.04-43.28-33.28q-11.48-.13-22.96-.31c-5-.07-6.17,4.35-10.97,5.8" fill="none" stroke="#1d9198" stroke-width="2"/>
        <path id="Tracé_24" data-name="Tracé 24" d="M532.28,358.25l-33.47.2q-.37,0-.09.25l.24.21q.31.26-.06.43l-1.41.63" fill="none" stroke="#1ab8be" stroke-width="2"/>
        <path id="Tracé_25" data-name="Tracé 25" d="M497.49,359.97q-19.61.02-39.24.02c-8.98,0-20.91,1.86-27.65,8.31" fill="none" stroke="#17747c" stroke-width="2"/>
        <path id="Tracé_26" data-name="Tracé 26" d="M430.6,368.3a1.379,1.379,0,0,1-.36-.81,1.087,1.087,0,0,1,.31-.89l1.17-1.23a.485.485,0,0,0-.02-.77c-4.31-4.2,8.11-8.33,10.39-9.06a.26.26,0,0,0,.01-.49,2.366,2.366,0,0,0-1.67.16q-7.32,2.95-9.72,4.27a.723.723,0,0,1-.63.09.707.707,0,0,0-.68.05,63.621,63.621,0,0,0-14.24,11.54" fill="none" stroke="#1ab8be" stroke-width="2"/>
        <path id="Tracé_27" data-name="Tracé 27" d="M541.34,467.91c5.53-2.4,9.51-1.72,14-6.94" fill="none" stroke="#1e777a" stroke-width="2"/>
        <path id="Tracé_28" data-name="Tracé 28" d="M555.34,460.97q4.48-.52,9.12-.87c13.39-1.02,24.58-7.96,32.03-19.18,7.5-11.32,6.75-23.2,6.58-37.53q-.13-10.22-1.54-15.52c-4.24-15.93-16.27-27.07-33.53-27q-18.27.07-36.55-.52" fill="none" stroke="#1b3238" stroke-width="2"/>
        <path id="Tracé_29" data-name="Tracé 29" d="M531.45,360.35l.83-2.1" fill="none" stroke="#1e777a" stroke-width="2"/>
        <path id="Tracé_30" data-name="Tracé 30" d="M531.45,360.35l-33.96-.38" fill="none" stroke="#185a5e" stroke-width="2"/>
        <path id="Tracé_31" data-name="Tracé 31" d="M430.6,368.3c-6.55,5.99-11.55,12.4-13.6,20.81-1.74,7.11-1,17.35-1,25.66a53.227,53.227,0,0,0,1.21,12.7,45.254,45.254,0,0,0,30.99,31.9q4.97,1.4,15.24,1.38,45.86-.06,91.9.22" fill="none" stroke="#185a5e" stroke-width="2"/>
        <path id="Tracé_32" data-name="Tracé 32" d="M777.27,389.74c-.77,9.03,9.22,8.26,14.95,7.01a1.119,1.119,0,0,0,.78-.58,3.8,3.8,0,0,0-.13-4.26,1.01,1.01,0,0,0-.88-.45c-2.3.09-9.72,1.84-9.47-1.98a150.949,150.949,0,0,0,.09-21.16.785.785,0,0,0-.74-.72l-2.77-.14a.725.725,0,0,0-.71.45,9.073,9.073,0,0,0-.69,3.84,151.331,151.331,0,0,1-.43,17.99" fill="none" stroke="#17747c" stroke-width="2"/>
        <path id="Tracé_33" data-name="Tracé 33" d="M241.005,369.217a1.41,1.41,0,0,0-1.422-1.4l-2.5.022a1.41,1.41,0,0,0-1.4,1.422l.149,17.08a1.41,1.41,0,0,0,1.422,1.4l2.5-.022a1.41,1.41,0,0,0,1.4-1.422l-.149-17.08" fill="none" stroke="#17747c" stroke-width="2"/>
        <path id="Tracé_34" data-name="Tracé 34" d="M227.57,396.09c2.8,1.62,9.1.98,12.12.86q4.98-.21,4.24-5.21a1.57,1.57,0,0,0-2.21-1.19,15.953,15.953,0,0,1-10.98.86c-2.63-.68-5.64,1.15-3.87,4a1.9,1.9,0,0,0,.7.68" fill="none" stroke="#17747c" stroke-width="2"/>
        <path id="Tracé_35" data-name="Tracé 35" d="M254.47,394.13a3.01,3.01,0,1,0-3.01,3.01,3.01,3.01,0,0,0,3.01-3.01" fill="none" stroke="#17747c" stroke-width="2"/>
        <path id="Tracé_36" data-name="Tracé 36" d="M768.12,397.323a3.2,3.2,0,1,0-3.246-2.785,3.033,3.033,0,0,0,3.246,2.785" fill="none" stroke="#17747c" stroke-width="2"/>
        <path id="Tracé_37" data-name="Tracé 37" d="M461,482.3c8.77,6.31,9.08,18.79,3.43,27.26" fill="none" stroke="#185a5e" stroke-width="2"/>
        <path id="Tracé_38" data-name="Tracé 38" d="M464.43,509.56c-5.78,6.31-3.77,20.66-2.99,27.97q.06.59.61.36a10.7,10.7,0,0,0,4.89-3.47" fill="none" stroke="#1b3238" stroke-width="2"/>
        <path id="Tracé_39" data-name="Tracé 39" d="M466.94,534.42c8.78-6.32,18.44-10.56,27.35-1.94,5.17,4.99,12.03,10.06,12.08,17.81a.97.97,0,0,0,.96.97l33.96.07a.716.716,0,0,0,.79-.68l.77-5.19" fill="none" stroke="#185a5e" stroke-width="2"/>
        <path id="Tracé_40" data-name="Tracé 40" d="M542.85,545.46c3.29-7.54,8.55-20.56,7.76-28.28q-2.05-20.22-4.23-40.38a.48.48,0,0,0-.52-.48q-44.45-.96-87.64-2.39a141.957,141.957,0,0,1-15.82-1.66q-1.26-.18-1.29,1.09l-.12,5.54q-.05,2.31,2.16,1.65A23.129,23.129,0,0,1,461,482.3" fill="none" stroke="#1b3238" stroke-width="2"/>
        <path id="Tracé_41" data-name="Tracé 41" d="M542.85,545.46q-1.94-17.66-3.96-34.46c-1.23-10.29-5.34-16.44-16.12-17.86-20.83-2.72-41.35-5.78-61.77-10.84" fill="none" stroke="#1e777a" stroke-width="2"/>
        <path id="Tracé_42" data-name="Tracé 42" d="M466.94,534.42l-2.51-24.86" fill="none" stroke="#1e777a" stroke-width="2"/>
        <path id="Tracé_43" data-name="Tracé 43" d="M556.59,506.1l5.59-16.87a2.205,2.205,0,0,0-.47-2.19l-7.3-7.97a.24.24,0,0,0-.41.16,140.432,140.432,0,0,0,2.18,26.84.21.21,0,0,0,.41.03" fill="none" stroke="#1b3238" stroke-width="2"/>
        <path id="Tracé_44" data-name="Tracé 44" d="M418.29,528.78q.33,1.35,2.41.64c4.02-1.37,6.01-1.96,10.09.02a85.148,85.148,0,0,0,10.12,4.12.61.61,0,0,0,.76-.25q7.93-11.19,14.94-22.97c2.46-4.12,4.83-7.6,5.45-12.32q.55-4.27-1.19-6.05" fill="none" stroke="#185a5e" stroke-width="2"/>
        <path id="Tracé_45" data-name="Tracé 45" d="M460.87,491.97c-3.68-8.96-14.07-8.88-19.16-1.26q-10.44,15.64-21.19,31.04-2.78,3.98-2.23,7.03" fill="none" stroke="#17747c" stroke-width="2"/>
        <path id="Tracé_46" data-name="Tracé 46" d="M460.87,491.97q-9.73-9.2-16.21.46c-7.67,11.42-14.66,21.93-22.73,30.11a16.233,16.233,0,0,0-3.64,6.24" fill="none" stroke="#1ab8be" stroke-width="2"/>
        <path id="Tracé_47" data-name="Tracé 47" d="M547.36,555.44a3.278,3.278,0,0,0,.37,2.82,1.065,1.065,0,0,0,.77.46,4.81,4.81,0,0,0,2.28-.17" fill="none" stroke="#5a5a5c" stroke-width="2"/>
        <path id="Tracé_48" data-name="Tracé 48" d="M550.78,558.55a4.78,4.78,0,0,0,3.29.88q30.98-.05,61.97-.3c9.53-.08,10.96-6.53,13.51-14.32q12.52-38.12,17.27-53.53a6.963,6.963,0,0,0-.37-4.78" fill="none" stroke="#323235" stroke-width="2"/>
        <path id="Tracé_49" data-name="Tracé 49" d="M646.45,486.5a67.769,67.769,0,0,0-9.7-.73q-29.17-.05-58.34,0c-10.86.01-11.52,7.8-14.18,16.19q-8.48,26.73-16.87,53.48" fill="none" stroke="#88878a" stroke-width="2"/>
        <path id="Tracé_50" data-name="Tracé 50" d="M646.45,486.5a1.925,1.925,0,0,1-1.72.97" fill="none" stroke="#a5a4a3" stroke-width="2"/>
        <path id="Tracé_51" data-name="Tracé 51" d="M644.73,487.47a.934.934,0,0,1-.8-.11q-31.69.37-63.4,1.43c-4.52.15-7.39,1.83-8.79,6q-10.27,30.63-19.29,54.4a37.18,37.18,0,0,1-3.65,5.97.761.761,0,0,1-.73.34l-.71-.06" fill="none" stroke="#cdccca" stroke-width="2"/>
        <path id="Tracé_52" data-name="Tracé 52" d="M550.78,558.55c26.18-3.88,49.23-12.72,67.44-32.57a155.273,155.273,0,0,0,24.5-35.49c.53-1.06,1.58-1.69,2.01-3.02" fill="none" stroke="#777775" stroke-width="2"/>
        <path id="Tracé_53" data-name="Tracé 53" d="M447.25,535.83a.31.31,0,0,0,.17.48l7.15,2.13a.31.31,0,0,0,.39-.31l-.26-12.16a.31.31,0,0,0-.57-.17l-6.88,10.03" fill="none" stroke="#1b3238" stroke-width="2"/>
        <path id="Tracé_54" data-name="Tracé 54" d="M415.57,539.71c-1.19,4.48,1.41,6.89,5.06,8.74q.37.19.38-.23a21.185,21.185,0,0,1,6.87-15.36q.55-.51-.19-.38c-5.39,1.02-10.45.97-12.12,7.23" fill="none" stroke="#1b3238" stroke-width="2"/>
        <path id="Tracé_55" data-name="Tracé 55" d="M428.86,545c-1.64,5.83,5.3,5.73,9.13,5.89q19.52.83,38.99.08" fill="none" stroke="#665045" stroke-width="2"/>
        <path id="Tracé_56" data-name="Tracé 56" d="M476.98,550.97a33.3,33.3,0,0,0,10.2-.19" fill="none" stroke="#2e2726" stroke-width="2"/>
        <path id="Tracé_57" data-name="Tracé 57" d="M487.18,550.78l11.34.01a.591.591,0,0,0,.66-.61,10.69,10.69,0,0,0-.61-4.22" fill="none" stroke="#665045" stroke-width="2"/>
        <path id="Tracé_58" data-name="Tracé 58" d="M498.57,545.96c-6.22-6.57-13.33-15.58-21.13-10.51q-7.33,4.77-12.74,8.62c-3.33,2.38-8.54,1.44-12.21.44q-9.34-2.54-18.88-4.55a1.594,1.594,0,0,0-.98.11q-3.61,1.62-3.77,4.93" fill="none" stroke="#8a7967" stroke-width="2"/>
        <path id="Tracé_59" data-name="Tracé 59" d="M498.57,545.96l-4.6.82a.74.74,0,0,0-.54.39,4.315,4.315,0,0,1-2.15,2,.683.683,0,0,1-.76-.13l-6.46-5.81a1.825,1.825,0,0,0-2.28-.13c-3.33,2.37-6.38,4.62-10.64,5.07a92.231,92.231,0,0,1-21.65-.25,1.562,1.562,0,0,1-.82-.36,1.292,1.292,0,0,0-.68-.36,112.546,112.546,0,0,1-19.13-2.2" fill="none" stroke="#dbb490" stroke-width="2"/>
        <path id="Tracé_60" data-name="Tracé 60" d="M487.18,550.78l-6.34-3.22a1.969,1.969,0,0,0-2.047.148,1.749,1.749,0,0,0-.683,1.842q.27,1.1-1.13,1.42" fill="none" stroke="#7f624f" stroke-width="2"/>
        <path id="Tracé_61" data-name="Tracé 61" d="M540.89,558.41a.67.67,0,0,0-.67-.67H435a.67.67,0,0,0-.67.67v2.1a.67.67,0,0,0,.67.67H540.22a.67.67,0,0,0,.67-.67v-2.1" fill="none" stroke="#88878a" stroke-width="2"/>
        <path id="Tracé_62" data-name="Tracé 62" d="M268.96,578.55l14.34-.23a.751.751,0,0,0,.84-.86l-.07-3.33a.88.88,0,0,0-.87-.86l-9.38-.03a1.52,1.52,0,0,1-1.51-1.48l-.2-9.96a1.075,1.075,0,0,0-.5-.89,3.6,3.6,0,0,0-3.93-.09,1.054,1.054,0,0,0-.59.99v14.9a1.84,1.84,0,0,0,1.87,1.84" fill="none" stroke="#8a7967" stroke-width="2"/>
        <path id="Tracé_63" data-name="Tracé 63" d="M744.84,572.92l-8.94.31a1.7,1.7,0,0,0-1.75,1.41q-.89,3.48,2.32,3.7a75.936,75.936,0,0,0,12.94-.21,1.02,1.02,0,0,0,.9-.9,73.537,73.537,0,0,0,.03-16.2.665.665,0,0,0-.72-.59l-3.11.24a.8.8,0,0,0-.82.86l-.34,10.87a.53.53,0,0,1-.51.51" fill="none" stroke="#8a7967" stroke-width="2"/>
        <path id="Tracé_64" data-name="Tracé 64" d="M347.69,574.06c1.79.97,5,.58,6.71.59,119.03.62,211.07.6,316.47-.28,5.28-.04,6.68-7.08.67-7.46q-4.51-.29-9.04-.27c-103,.45-205.99.03-309,.33q-2.34.01-4.69.15c-4.42.27-4.47,5.13-1.12,6.94" fill="none" stroke="#4c3b39" stroke-width="2"/>
        <path id="Tracé_65" data-name="Tracé 65" d="M373.48,584.51l.72-1.36a.46.46,0,0,0-.19-.63l-.13-.07c-1.183-.632-2.382-.694-2.68-.14l-.08.16c-.3.554.417,1.516,1.6,2.15l.14.07a.46.46,0,0,0,.62-.18" fill="none" stroke="#185a5e" stroke-width="2"/>
        <path id="Tracé_66" data-name="Tracé 66" d="M649.14,582.13l-1.55.02a1.1,1.1,0,0,0-1.065.952,1.073,1.073,0,0,0,.785,1.178q3.31.92,2.12-1.96a.321.321,0,0,0-.29-.19" fill="none" stroke="#17747c" stroke-width="2"/>
        <path id="Tracé_67" data-name="Tracé 67" d="M449.53,596.31l113.04.2a.24.24,0,0,0,.24-.24l.01-9.26c0-2.25-.838-4.075-1.88-4.08l-109.74-.2c-.5,0-.985.426-1.341,1.192a7.1,7.1,0,0,0-.559,2.888l-.01,9.26a.24.24,0,0,0,.24.24" fill="none" stroke="#1b3238" stroke-width="2"/>
        <path id="Tracé_68" data-name="Tracé 68" d="M379.89,592.15l.07,11.23a.521.521,0,0,0,.59.59q18.66.11,37.12-.01,1.73-.01,3.9-2.33" fill="none" stroke="#4c3b39" stroke-width="2"/>
        <path id="Tracé_69" data-name="Tracé 69" d="M421.57,601.63q8.49-5.7,16.78-11.53,2.72-1.9,2.76-6.45.01-.38-.38-.38l-60.04-.12a.5.5,0,0,0-.57.54l-.23,8.46" fill="none" stroke="#2e2726" stroke-width="2"/>
        <path id="Tracé_70" data-name="Tracé 70" d="M421.57,601.63c-1.95-5.54-5.71-9.3-11.77-9.47q-14.88-.41-29.91-.01" fill="none" stroke="#654c43" stroke-width="2"/>
        <path id="Tracé_71" data-name="Tracé 71" d="M587.99,582.99l-19.3-.04a.81.81,0,0,0-.81.81l-.01,3.99c0,1.939.664,3.513,1.49,3.52l17.92.04c.4,0,.782-.367,1.065-1.027a6.593,6.593,0,0,0,.445-2.493l.01-3.99a.81.81,0,0,0-.81-.81" fill="none" stroke="#2e2726" stroke-width="2"/>
        <path id="Tracé_72" data-name="Tracé 72" d="M594.79,591.99l.27,11.37a.586.586,0,0,0,.66.64h32.97a1.336,1.336,0,0,0,.84-.3l13.78-11.43" fill="none" stroke="#4c3b39" stroke-width="2"/>
        <path id="Tracé_73" data-name="Tracé 73" d="M643.31,592.27l-1.38-8.5a.906.906,0,0,0-1.01-.84l-44.98.33a1.227,1.227,0,0,0-1.38,1.43l.23,7.3" fill="none" stroke="#2e2726" stroke-width="2"/>
        <path id="Tracé_74" data-name="Tracé 74" d="M643.31,592.27q-24.98-1.04-48.52-.28" fill="none" stroke="#654c43" stroke-width="2"/>
        <path id="Tracé_87" data-name="Tracé 87" d="M517.14,788.99l.03-50.84a1.71,1.71,0,0,0-1.85-1.7l-2.7.21a.755.755,0,0,0-.69.75l-.36,55.13a2.745,2.745,0,0,1-1.39,2.37q-2.27,1.29-2.85-1.23a30.251,30.251,0,0,1-.76-6.18q-.42-21.99.19-43.99c.07-2.37.65-7.95-3.05-7.44a2.129,2.129,0,0,0-2.04,2.33l-.45,50.71q0,.58-.55.4-4.64-1.58-4.65-6.99c-.03-11.7.63-23.9-.46-35.53a.824.824,0,0,0-.81-.82l-2.09-.23a1.5,1.5,0,0,0-1.154.371A1.516,1.516,0,0,0,491,747.42l-.43,39.74a1.135,1.135,0,0,0,.27.76c4.76,5.53,12.26,10.74,17.92,15.49a.616.616,0,0,0,.87,0l17.91-15.37a1.355,1.355,0,0,0,.47-1.07q-.4-18.43-.25-37.12a19.682,19.682,0,0,0-.4-2.86.881.881,0,0,0-.5-.67q-2.31-1.2-3.43.17a4.383,4.383,0,0,0-.65,2.63q-.33,16.69-.27,33.4c.01,3.73-1.61,5.46-4.78,6.85q-.59.26-.59-.38" transform="translate(147.463 -371.184)" fill="none" stroke="#17747c" stroke-width="2"/>
        <path id="Tracé_88" data-name="Tracé 88" d="M422.95,419.5c.76,15.14,11.78,28.18,25.97,33.03,5.59,1.91,12.58,1.47,18.83,1.51q46.1.26,92.18.38a34.562,34.562,0,0,0,23.25-8.74c8.29-7.13,12.66-15.14,13.1-26.04q.7-17.07.42-22.08c-.94-16.6-13.84-30.72-30.95-30.65q-53.12.21-106.23.4c-6.96.03-15.54.37-21.48,4.47-8.49,5.86-14.33,14.61-14.86,25.03q-.68,13.58-.23,22.69" fill="none" stroke="#665045" stroke-width="2"/>
        <path id="Tracé_89" data-name="Tracé 89" d="M470.13,375.64c-9.58-.18-21.72-.4-29.59,5.63-6.82,5.24-11.73,11.03-12.28,19.99a165.791,165.791,0,0,0,.08,24.23c1.2,14.24,18.33,25.74,31.84,25.61q45.69-.45,91.38-.18,10.8.07,15.61-1.35a33.5,33.5,0,0,0,23.85-29.31q1.17-14.32.17-20.45c-2.02-12.44-12.74-21.36-24.75-23.58q-2.57-.47-15.8-.51c-26.82-.06-53.7.42-80.51-.08" fill="none" stroke="#dbb490" stroke-width="2"/>
        <path id="Tracé_90" data-name="Tracé 90" d="M466.533,436.392c14.352-2.842,23.621-17.091,20.7-31.828s-16.917-24.378-31.269-21.536-23.621,17.092-20.7,31.828,16.917,24.378,31.268,21.536" fill="none" stroke="#8a7967" stroke-width="2"/>
        <path id="Tracé_91" data-name="Tracé 91" d="M563.608,436.623a27.193,27.193,0,1,0-31.238-21.91,26.982,26.982,0,0,0,31.238,21.91" fill="none" stroke="#8a7967" stroke-width="2"/>
        <path id="Tracé_92" data-name="Tracé 92" d="M496.88,432.79c-.92,5.61,6.72,2.74,9.63,2.24q5.39-.91,13.73,1.21c3.72.94,5.45-4.6,1.25-5.97a34.8,34.8,0,0,0-21.05-.34c-1.76.51-3.23.82-3.56,2.86" fill="none" stroke="#8a7967" stroke-width="2"/>
        <path id="Tracé_93" data-name="Tracé 93" d="M453.24,418.53c15.31,3.09,23.9-12.12,13.22-23.07" fill="none" stroke="#8a7967" stroke-width="2"/>
        <path id="Tracé_94" data-name="Tracé 94" d="M466.46,395.46c-20.78-12.02-32.89,16.36-13.22,23.07" fill="none" stroke="#88878a" stroke-width="2"/>
        <path id="Tracé_95" data-name="Tracé 95" d="M466.46,395.46q-.79,1.15-2.26.03a1.5,1.5,0,0,0-1.146-.279,1.475,1.475,0,0,0-.984.639l-1.45,2.17a1.461,1.461,0,0,1-.6.51l-9.64,4.29a.269.269,0,0,0-.16.37q.06.14.11.27a.415.415,0,0,0,.51.25q5.54-1.76,8.1,2.87,5.02,9.08-5.7,11.95" fill="none" stroke="#fdebd5" stroke-width="2"/>
        <path id="Tracé_96" data-name="Tracé 96" d="M553.64,418.84c16.62.77,19.7-19.59,5.37-25.79" fill="none" stroke="#8a7967" stroke-width="2"/>
        <path id="Tracé_97" data-name="Tracé 97" d="M559.01,393.05c-20.39-5.85-25.89,24.2-5.37,25.79" fill="none" stroke="#88878a" stroke-width="2"/>
        <path id="Tracé_98" data-name="Tracé 98" d="M559.01,393.05q-.25,5.13-5.58,7.04a1.641,1.641,0,0,0-.77.57,3.848,3.848,0,0,1-2.55,1.56.61.61,0,0,0-.04,1.19c8.75,1.89,8.75,9.46,3.57,15.43" fill="none" stroke="#fdebd5" stroke-width="2"/>
        <path id="Tracé_99" data-name="Tracé 99" d="M610.91,522.01a11.2,11.2,0,1,0-11.2,11.2,11.2,11.2,0,0,0,11.2-11.2" fill="none" stroke="#5a5a5c" stroke-width="2"/>
        <path id="Tracé_100" data-name="Tracé 100" d="M605.59,522.09a5.97,5.97,0,1,0-5.97,5.97,5.97,5.97,0,0,0,5.97-5.97" fill="none" stroke="#5a5a5c" stroke-width="2"/>
      </g>
      <path id="Soustraction_1" data-name="Soustraction 1" d="M-110.847,275.908a1.056,1.056,0,0,1-.145-.01l-.913-.123h-.006a49.793,49.793,0,0,0-6.772-.612c-.179,0-.36,0-.54.006-7.83.177-15.771.266-23.6.266-3.917,0-7.886-.022-11.8-.067-.326,0-.531-.076-.61-.218s-.035-.354.131-.632a24.9,24.9,0,0,0,2.18-4.92c6.563-20.119,13.161-40.4,19.61-60.28,1.342-4.141,1.14-7.455-.6-9.848-1.916-2.638-5.648-4.036-10.792-4.042-10.016-.015-20.184-.023-30.22-.023-12.034,0-24.281.011-36.4.032-1.725,0-4.672.774-8.76,2.3a.889.889,0,0,1-.319.059.9.9,0,0,1-.511-.159,10.229,10.229,0,0,1-3.97-5.48.736.736,0,0,1,.108-.638.735.735,0,0,1,.572-.3c25.987-.721,47.342-18.15,53.14-43.37.936-4.074,1.414-10.17,1.42-18.12,0-2.543.024-5.131.043-7.634v-.014c.084-11,.172-22.369-1.082-33.4C-176.235,39.553-213.059,4.06-262.313.357c-5.96-.446-11.4-.663-16.643-.663-28.41,0-50.261,6.667-68.767,20.983-19.313,14.946-32.212,38-35.39,63.24-1.47,11.714-1.2,25.162-.945,38.168.1,5.069.2,9.852.2,14.573-.009,21.151,12.275,39.824,32.86,49.95a.692.692,0,0,1,.36.79,19.194,19.194,0,0,0,1.31,13.71.89.89,0,0,1-.06.89c-6.268,9.265-12.616,18.692-18.87,28.02-.487.728-.948,1.405-1.393,2.06-4.386,6.453-6.8,10.008-5.087,17.65a1.252,1.252,0,0,1-.12.89c-2.184,3.911-2.643,7.566-1.363,10.864,2.276,5.865,9.293,8.962,13.273,10.286a7.934,7.934,0,0,0,.859.2c1.031.205,2.314.461,2.741,1.559a1.111,1.111,0,0,1-.118,1.025,1.111,1.111,0,0,1-.912.484l-80,.471h-.023a.738.738,0,0,1-.617-.311,202.669,202.669,0,0,1-20.488-32.11A203.785,203.785,0,0,1-475.386,208.5a206.884,206.884,0,0,1-7.329-36.094,209.146,209.146,0,0,1-.848-36.629A208.916,208.916,0,0,1-478,99.583a206.2,206.2,0,0,1,11.914-34.789,202.673,202.673,0,0,1,18.2-32.412A201.151,201.151,0,0,1-423.472,3.317a208.309,208.309,0,0,1,32.426-26.109,204.579,204.579,0,0,1,35.721-18.519,206.3,206.3,0,0,1,37.913-11.034,209.871,209.871,0,0,1,39-3.655,212.686,212.686,0,0,1,42.977,4.4,213.311,213.311,0,0,1,41.481,13.115A212.663,212.663,0,0,1-155.446-16.8a214.154,214.154,0,0,1,34.054,30.114,203.147,203.147,0,0,1,22.008,28.9,204.228,204.228,0,0,1,16.243,31.72,206.465,206.465,0,0,1,10.418,33.683,207.624,207.624,0,0,1,4.531,34.792,206.622,206.622,0,0,1-1.416,35.045A203.779,203.779,0,0,1-77.034,211.9a199.088,199.088,0,0,1-33.119,63.658A.862.862,0,0,1-110.847,275.908Zm-35.571-185a1.5,1.5,0,0,0-1,.38,1.519,1.519,0,0,0-.506,1.109l-.43,39.739a1.136,1.136,0,0,0,.27.761c3.4,3.95,8.141,7.691,12.726,11.31,1.84,1.452,3.577,2.823,5.194,4.18a.693.693,0,0,0,.438.18.673.673,0,0,0,.432-.18l17.91-15.37a1.35,1.35,0,0,0,.47-1.07c-.265-12.222-.349-24.711-.249-37.12a17.706,17.706,0,0,0-.361-2.646l-.04-.214a.882.882,0,0,0-.5-.67,4.254,4.254,0,0,0-1.9-.56,1.9,1.9,0,0,0-1.532.73,4.4,4.4,0,0,0-.651,2.63c-.219,11.075-.309,22.312-.27,33.4a6.842,6.842,0,0,1-1.2,4.3,8.425,8.425,0,0,1-3.582,2.547.752.752,0,0,1-.292.075.25.25,0,0,1-.223-.114.634.634,0,0,1-.074-.341l.03-50.84a1.712,1.712,0,0,0-.553-1.255,1.708,1.708,0,0,0-1.158-.451c-.047,0-.093,0-.139.006l-2.7.21a.75.75,0,0,0-.689.751l-.36,55.129a2.751,2.751,0,0,1-1.391,2.37,2.829,2.829,0,0,1-1.344.437c-.745,0-1.252-.561-1.506-1.667a30.408,30.408,0,0,1-.761-6.18c-.279-14.6-.215-29.4.19-43.99.006-.2.015-.42.025-.655v-.011c.083-1.938.209-4.867-1.033-6.164a2.107,2.107,0,0,0-1.585-.641,3.363,3.363,0,0,0-.457.033,2.136,2.136,0,0,0-2.039,2.33l-.45,50.71c0,.294-.108.443-.321.443a.755.755,0,0,1-.229-.043,6.581,6.581,0,0,1-3.483-2.538,7.944,7.944,0,0,1-1.167-4.452c-.008-3.289.039-6.681.084-9.962v-.015a241.514,241.514,0,0,0-.544-25.554.827.827,0,0,0-.81-.82l-2.09-.23A1.5,1.5,0,0,0-146.418,90.905Z" transform="translate(786.383 283.842)" fill="#18d2dc"/>
      <path id="Tracé_106" data-name="Tracé 106" d="M713.36,277.3a.621.621,0,0,1-.61-.76l1.52-15.7a.87.87,0,0,0-.14-.59,16.622,16.622,0,0,0-2.07-2.56q-12.71-12.74-21.28-20.71c-2.47-2.3-.14-5.95,2.3-5.16a7.894,7.894,0,0,1,2.45,1.83q11.15,10.83,21.94,21.64a2.37,2.37,0,0,1,.69,1.85l-1.29,19.08a1.435,1.435,0,0,1-.514,1.014,1.415,1.415,0,0,1-1.086.316Z" fill="#18d2dc"/>
      <path id="Tracé_107" data-name="Tracé 107" d="M299.46,265.22c-2.64,2.02-6.13,2.4-7.34-1.36a1.58,1.58,0,0,1,2.5-1.71,6.655,6.655,0,0,0,4.39,1.45,1.1,1.1,0,0,0,.82-1.82c-2.37-2.76-1.14-4.65,1.12-6.99q11.28-11.66,22.98-22.88a.97.97,0,0,1,.89-.24,3.441,3.441,0,0,1,2.75,2.88.883.883,0,0,1-.26.87l-23.72,23.96a2.39,2.39,0,0,0-.62,2.22,113.052,113.052,0,0,1,2.29,13.14c.43,3.61-4.29,4.15-4.27-.21a49.093,49.093,0,0,0-.77-9.01Q300.08,264.75,299.46,265.22Z" fill="#18d2dc"/>
      <path id="Tracé_108" data-name="Tracé 108" d="M725.47,259.27a.69.69,0,0,1,.16.97l-.47.64c-1.873,2.58-4.121,4.143-5.02,3.49l-.07-.05c-.894-.656-.1-3.274,1.77-5.85l.47-.64a.69.69,0,0,1,.96-.16Z" fill="#18d2dc"/>
      <path id="Tracé_109" data-name="Tracé 109" d="M743.85,269.33a1.15,1.15,0,0,1,1.16,1.14l.01,1.68a2.374,2.374,0,0,1-2.46,2.27l-11.24.1a2.373,2.373,0,0,1-2.5-2.23l-.01-1.68a1.15,1.15,0,0,1,1.14-1.16Z" fill="#18d2dc"/>
      <rect id="Rectangle_1" data-name="Rectangle 1" width="16" height="4.74" rx="1.75" transform="translate(273.916 269.644) rotate(-1.1)" fill="#18d2dc"/>
      <path id="Tracé_110" data-name="Tracé 110" d="M544.2,296.33a2.339,2.339,0,0,1-.12.3.244.244,0,0,0,.17.38,80.915,80.915,0,0,1,40.05,27.45c1.21,1.52,2.3,3.54,3.63,5.24,5.46,6.99,9.42,17.21,12.55,25.49l-1.04.34a.826.826,0,0,1-.83-.16c-15.61-12.82-33.33-11.88-52.39-11.34,6.57-22.15-1.73-45.61-26.5-50.31l-7.01-1.08c2.59-.45,4.4-.99,7.07-.72A160,160,0,0,1,544.2,296.33Z" fill="#214f54"/>
      <path id="Tracé_111" data-name="Tracé 111" d="M512.71,292.64l7.01,1.08q1.35,1.77.11,2.66-.04.03,0,.07l.27.28a.276.276,0,0,1,.05.36,5.132,5.132,0,0,1-3.69,2.62,1.693,1.693,0,0,0-.97.53,77.88,77.88,0,0,1-7.11,6.88.742.742,0,0,0-.22.29.668.668,0,0,0,.03.47.5.5,0,0,1-.13.65,179.36,179.36,0,0,1-15.64,12.28c-1.22.85-1.97,2.65-4.23,1.94a.733.733,0,0,0-.8.19,5.879,5.879,0,0,1-3.44,1.73.919.919,0,0,0-.84.79q-2.01,9.82-12.15,8.1a1.32,1.32,0,0,1-.65-.3c-2.83-2.4-4.01.25-6.21.93a67.678,67.678,0,0,1-7.86,1.8c-4.98.9-11.3,3.31-16.8,4.93-3.79,1.11-6.16,3.71-10.28,4.63-1.06.24-1.5,1.12-2.99.43a1.022,1.022,0,0,0-.97.03,3.59,3.59,0,0,1-4.27-.38q-.46-.38-.7.16-.73,1.62-2.73.59C432.08,306.91,473.07,288.93,512.71,292.64Z" fill="#18d2dc"/>
      <path id="Tracé_112" data-name="Tracé 112" d="M519.72,293.72c24.77,4.7,33.07,28.16,26.5,50.31q-46.7-.07-93.47-.06-24.09.01-39.69,17.96-.54.63-.39-.19a71.577,71.577,0,0,1,4.83-15.36q2,1.03,2.73-.59.24-.54.7-.16a3.59,3.59,0,0,0,4.27.38,1.022,1.022,0,0,1,.97-.03c1.49.69,1.93-.19,2.99-.43,4.12-.92,6.49-3.52,10.28-4.63,5.5-1.62,11.82-4.03,16.8-4.93a67.678,67.678,0,0,0,7.86-1.8c2.2-.68,3.38-3.33,6.21-.93a1.32,1.32,0,0,0,.65.3q10.14,1.72,12.15-8.1a.919.919,0,0,1,.84-.79,5.879,5.879,0,0,0,3.44-1.73.733.733,0,0,1,.8-.19c2.26.71,3.01-1.09,4.23-1.94a179.36,179.36,0,0,0,15.64-12.28.5.5,0,0,0,.13-.65.668.668,0,0,1-.03-.47.742.742,0,0,1,.22-.29,77.88,77.88,0,0,0,7.11-6.88,1.693,1.693,0,0,1,.97-.53,5.132,5.132,0,0,0,3.69-2.62.276.276,0,0,0-.05-.36l-.27-.28q-.04-.04,0-.07Q521.07,295.49,519.72,293.72Z" fill="#1b9e9f"/>
      <path id="Tracé_113" data-name="Tracé 113" d="M544.2,296.33q41.05,12.01,55.29,51.8,1.85,5.17,3.56,10.53.34,1.04-.36.2a14.586,14.586,0,0,1-2.21-3.67c-3.13-8.28-7.09-18.5-12.55-25.49-1.33-1.7-2.42-3.72-3.63-5.24a80.915,80.915,0,0,0-40.05-27.45.244.244,0,0,1-.17-.38A2.339,2.339,0,0,0,544.2,296.33Z" fill="#18d2dc"/>
      <rect id="Rectangle_2" data-name="Rectangle 2" width="5.5" height="20" rx="2.12" transform="translate(754.232 320.315) rotate(-0.1)" fill="#ffdcb1"/>
      <rect id="Rectangle_3" data-name="Rectangle 3" width="5.4" height="19.42" rx="1.91" transform="matrix(1, 0.007, -0.007, 1, 260.648, 320.521)" fill="#ffdcb1"/>
      <rect id="Rectangle_4" data-name="Rectangle 4" width="5.24" height="15.9" rx="1.68" transform="translate(250.788 333.731) rotate(0.2)" fill="#ffdcb1"/>
      <rect id="Rectangle_5" data-name="Rectangle 5" width="5.68" height="15.92" rx="2.1" transform="matrix(1, -0.014, 0.014, 1, 763.629, 333.82)" fill="#ffdcb1"/>
      <path id="Tracé_114" data-name="Tracé 114" d="M609.49,386.04c-6.03-21.04-21.2-33.04-43.28-33.28q-11.48-.13-22.96-.31c-5-.07-6.17,4.35-10.97,5.8l-33.47.2q-.37,0-.09.25l.24.21q.31.26-.06.43l-1.41.63q-19.61.02-39.24.02c-8.98,0-20.91,1.86-27.65,8.31a1.379,1.379,0,0,1-.36-.81,1.087,1.087,0,0,1,.31-.89l1.17-1.23a.485.485,0,0,0-.02-.77c-4.31-4.2,8.11-8.33,10.39-9.06a.26.26,0,0,0,.01-.49,2.366,2.366,0,0,0-1.67.16q-7.32,2.95-9.72,4.27a.723.723,0,0,1-.63.09.707.707,0,0,0-.68.05,63.621,63.621,0,0,0-14.24,11.54c8.85-12.61,22.1-20.44,37.53-20.54q42.78-.28,85.56-.12,26.58.11,36.75.7C591.3,352.14,608.55,369.91,609.49,386.04Z" fill="#18d2dc"/>
      <path id="Tracé_115" data-name="Tracé 115" d="M609.49,386.04a14.277,14.277,0,0,1,.63,4.02q.38,15.23-.09,30.46a48.8,48.8,0,0,1-1.91,13.28c-6.47,19.66-23.68,33.85-44.42,35.18a110.336,110.336,0,0,1-22.36-1.07c5.53-2.4,9.51-1.72,14-6.94q4.48-.52,9.12-.87c13.39-1.02,24.58-7.96,32.03-19.18,7.5-11.32,6.75-23.2,6.58-37.53q-.13-10.22-1.54-15.52c-4.24-15.93-16.27-27.07-33.53-27q-18.27.07-36.55-.52l.83-2.1c4.8-1.45,5.97-5.87,10.97-5.8q11.48.18,22.96.31C588.29,353,603.46,365,609.49,386.04Z" fill="#214f54"/>
      <path id="Tracé_116" data-name="Tracé 116" d="M430.6,368.3c-6.55,5.99-11.55,12.4-13.6,20.81-1.74,7.11-1,17.35-1,25.66a53.227,53.227,0,0,0,1.21,12.7,45.254,45.254,0,0,0,30.99,31.9q4.97,1.4,15.24,1.38,45.86-.06,91.9.22c-4.49,5.22-8.47,4.54-14,6.94-3.13-.35-6.75.15-9.46.12q-37.06-.42-74.13-.43c-26.02-.01-48.17-20.31-48.43-46.17q-.16-15.83.01-31.67a31.564,31.564,0,0,1,5.83-18.6,63.621,63.621,0,0,1,14.24-11.54.707.707,0,0,1,.68-.05.723.723,0,0,0,.63-.09q2.4-1.32,9.72-4.27a2.366,2.366,0,0,1,1.67-.16.26.26,0,0,1-.01.49c-2.28.73-14.7,4.86-10.39,9.06a.485.485,0,0,1,.02.77l-1.17,1.23a1.087,1.087,0,0,0-.31.89A1.379,1.379,0,0,0,430.6,368.3Z" fill="#1b9e9f"/>
      <path id="Tracé_117" data-name="Tracé 117" d="M532.28,358.25l-.83,2.1-33.96-.38,1.41-.63q.37-.17.06-.43l-.24-.21q-.28-.25.09-.25Z" fill="#1b9e9f"/>
      <path id="Tracé_118" data-name="Tracé 118" d="M497.49,359.97l33.96.38q18.28.59,36.55.52c17.26-.07,29.29,11.07,33.53,27q1.41,5.3,1.54,15.52c.17,14.33.92,26.21-6.58,37.53-7.45,11.22-18.64,18.16-32.03,19.18q-4.64.35-9.12.87-46.04-.28-91.9-.22-10.27.02-15.24-1.38a45.254,45.254,0,0,1-30.99-31.9,53.227,53.227,0,0,1-1.21-12.7c0-8.31-.74-18.55,1-25.66,2.05-8.41,7.05-14.82,13.6-20.81,6.74-6.45,18.67-8.31,27.65-8.31Q477.88,359.99,497.49,359.97ZM422.95,419.5c.76,15.14,11.78,28.18,25.97,33.03,5.59,1.91,12.58,1.47,18.83,1.51q46.1.26,92.18.38a34.562,34.562,0,0,0,23.25-8.74c8.29-7.13,12.66-15.14,13.1-26.04q.7-17.07.42-22.08c-.94-16.6-13.84-30.72-30.95-30.65q-53.12.21-106.23.4c-6.96.03-15.54.37-21.48,4.47-8.49,5.86-14.33,14.61-14.86,25.03Q422.5,410.39,422.95,419.5Z" fill="#15151c"/>
      <path id="Tracé_119" data-name="Tracé 119" d="M448.92,452.53c-14.19-4.85-25.21-17.89-25.97-33.03q-.45-9.11.23-22.69c.53-10.42,6.37-19.17,14.86-25.03,5.94-4.1,14.52-4.44,21.48-4.47q53.11-.19,106.23-.4c17.11-.07,30.01,14.05,30.95,30.65q.28,5.01-.42,22.08c-.44,10.9-4.81,18.91-13.1,26.04a34.562,34.562,0,0,1-23.25,8.74q-46.08-.12-92.18-.38C461.5,454,454.51,454.44,448.92,452.53Zm21.21-76.89c-9.58-.18-21.72-.4-29.59,5.63-6.82,5.24-11.73,11.03-12.28,19.99a165.791,165.791,0,0,0,.08,24.23c1.2,14.24,18.33,25.74,31.84,25.61q45.69-.45,91.38-.18,10.8.07,15.61-1.35a33.5,33.5,0,0,0,23.85-29.31q1.17-14.32.17-20.45c-2.02-12.44-12.74-21.36-24.75-23.58q-2.57-.47-15.8-.51C523.82,375.66,496.94,376.14,470.13,375.64Z" fill="#b78b6e"/>
      <path id="Tracé_120" data-name="Tracé 120" d="M792.22,396.75c-5.73,1.25-15.72,2.02-14.95-7.01a151.331,151.331,0,0,0,.43-17.99,9.073,9.073,0,0,1,.69-3.84.725.725,0,0,1,.71-.45l2.77.14a.785.785,0,0,1,.74.72,150.949,150.949,0,0,1-.09,21.16c-.25,3.82,7.17,2.07,9.47,1.98a1.01,1.01,0,0,1,.88.45,3.8,3.8,0,0,1,.13,4.26A1.119,1.119,0,0,1,792.22,396.75Z" fill="#18d2dc"/>
      <rect id="Rectangle_6" data-name="Rectangle 6" width="5.32" height="19.9" rx="1.41" transform="translate(235.673 367.854) rotate(-0.5)" fill="#18d2dc"/>
      <path id="Tracé_121" data-name="Tracé 121" d="M470.13,375.64c26.81.5,53.69.02,80.51.08q13.23.04,15.8.51c12.01,2.22,22.73,11.14,24.75,23.58q1,6.13-.17,20.45a33.5,33.5,0,0,1-23.85,29.31q-4.81,1.42-15.61,1.35-45.69-.27-91.38.18c-13.51.13-30.64-11.37-31.84-25.61a165.791,165.791,0,0,1-.08-24.23c.55-8.96,5.46-14.75,12.28-19.99C448.41,375.24,460.55,375.46,470.13,375.64Zm-3.6,60.752c14.352-2.842,23.621-17.091,20.7-31.828s-16.917-24.378-31.269-21.536-23.621,17.092-20.7,31.828,16.917,24.378,31.268,21.536Zm97.075.231a27.193,27.193,0,1,0-31.238-21.91,26.982,26.982,0,0,0,31.238,21.91ZM496.88,432.79c-.92,5.61,6.72,2.74,9.63,2.24q5.39-.91,13.73,1.21c3.72.94,5.45-4.6,1.25-5.97a34.8,34.8,0,0,0-21.05-.34C498.68,430.44,497.21,430.75,496.88,432.79Z" fill="#ffdcb1"/>
      <path id="Tracé_122" data-name="Tracé 122" d="M466.533,436.392c-14.352,2.842-28.352-6.8-31.269-21.537s6.351-28.985,20.7-31.827,28.353,6.8,31.27,21.538-6.351,28.984-20.7,31.826ZM453.24,418.53c15.31,3.09,23.9-12.12,13.22-23.07C445.68,383.44,433.57,411.82,453.24,418.53Z" fill="#15151c"/>
      <path id="Tracé_123" data-name="Tracé 123" d="M563.608,436.623a27.193,27.193,0,1,1,21.422-31.576,26.982,26.982,0,0,1-21.422,31.576ZM553.64,418.84c16.62.77,19.7-19.59,5.37-25.79C538.62,387.2,533.12,417.25,553.64,418.84Z" fill="#15151c"/>
      <path id="Tracé_124" data-name="Tracé 124" d="M227.57,396.09a1.9,1.9,0,0,1-.7-.68c-1.77-2.85,1.24-4.68,3.87-4a15.953,15.953,0,0,0,10.98-.86,1.57,1.57,0,0,1,2.21,1.19q.74,5-4.24,5.21C236.67,397.07,230.37,397.71,227.57,396.09Z" fill="#18d2dc"/>
      <circle id="Ellipse_1" data-name="Ellipse 1" cx="3.01" cy="3.01" r="3.01" transform="translate(248.45 391.12)" fill="#18d2dc"/>
      <ellipse id="Ellipse_2" data-name="Ellipse 2" cx="3.18" cy="2.86" rx="3.18" ry="2.86" transform="matrix(0.129, 0.992, -0.992, 0.129, 770.137, 390.648)" fill="#18d2dc"/>
      <path id="Tracé_125" data-name="Tracé 125" d="M559.01,393.05q-.25,5.13-5.58,7.04a1.641,1.641,0,0,0-.77.57,3.848,3.848,0,0,1-2.55,1.56.61.61,0,0,0-.04,1.19c8.75,1.89,8.75,9.46,3.57,15.43C533.12,417.25,538.62,387.2,559.01,393.05Z" fill="#faf9f8"/>
      <path id="Tracé_126" data-name="Tracé 126" d="M466.46,395.46q-.79,1.15-2.26.03a1.5,1.5,0,0,0-1.146-.279,1.475,1.475,0,0,0-.984.639l-1.45,2.17a1.461,1.461,0,0,1-.6.51l-9.64,4.29a.269.269,0,0,0-.16.37q.06.14.11.27a.415.415,0,0,0,.51.25q5.54-1.76,8.1,2.87,5.02,9.08-5.7,11.95C433.57,411.82,445.68,383.44,466.46,395.46Z" fill="#faf9f8"/>
      <path id="Tracé_127" data-name="Tracé 127" d="M559.01,393.05c14.33,6.2,11.25,26.56-5.37,25.79,5.18-5.97,5.18-13.54-3.57-15.43a.61.61,0,0,1,.04-1.19,3.848,3.848,0,0,0,2.55-1.56,1.641,1.641,0,0,1,.77-.57Q558.76,398.18,559.01,393.05Z" fill="#ffdcb1"/>
      <path id="Tracé_128" data-name="Tracé 128" d="M466.46,395.46c10.68,10.95,2.09,26.16-13.22,23.07q10.72-2.87,5.7-11.95-2.56-4.63-8.1-2.87a.415.415,0,0,1-.51-.25q-.05-.13-.11-.27a.269.269,0,0,1,.16-.37l9.64-4.29a1.461,1.461,0,0,0,.6-.51l1.45-2.17a1.475,1.475,0,0,1,.984-.639,1.5,1.5,0,0,1,1.146.279Q465.67,396.61,466.46,395.46Z" fill="#ffdcb1"/>
      <path id="Tracé_129" data-name="Tracé 129" d="M506.51,435.03c-2.91.5-10.55,3.37-9.63-2.24.33-2.04,1.8-2.35,3.56-2.86a34.8,34.8,0,0,1,21.05.34c4.2,1.37,2.47,6.91-1.25,5.97Q511.9,434.12,506.51,435.03Z" fill="#15151c"/>
      <path id="Tracé_130" data-name="Tracé 130" d="M542.85,545.46q-1.94-17.66-3.96-34.46c-1.23-10.29-5.34-16.44-16.12-17.86-20.83-2.72-41.35-5.78-61.77-10.84a23.129,23.129,0,0,0-17.85-1.75q-2.21.66-2.16-1.65l.12-5.54q.03-1.27,1.29-1.09a141.957,141.957,0,0,0,15.82,1.66q43.19,1.43,87.64,2.39a.48.48,0,0,1,.52.48q2.18,20.16,4.23,40.38C551.4,524.9,546.14,537.92,542.85,545.46Z" fill="#214f54"/>
      <path id="Tracé_131" data-name="Tracé 131" d="M562.18,489.23l-5.59,16.87a.21.21,0,0,1-.41-.03A140.432,140.432,0,0,1,554,479.23a.24.24,0,0,1,.41-.16l7.3,7.97A2.205,2.205,0,0,1,562.18,489.23Z" fill="#214f54"/>
      <path id="Tracé_132" data-name="Tracé 132" d="M461,482.3c20.42,5.06,40.94,8.12,61.77,10.84,10.78,1.42,14.89,7.57,16.12,17.86q2.02,16.8,3.96,34.46l-.77,5.19a.716.716,0,0,1-.79.68l-33.96-.07a.97.97,0,0,1-.96-.97c-.05-7.75-6.91-12.82-12.08-17.81-8.91-8.62-18.57-4.38-27.35,1.94l-2.51-24.86C470.08,501.09,469.77,488.61,461,482.3Z" fill="#1b9e9f"/>
      <path id="Tracé_133" data-name="Tracé 133" d="M460.87,491.97q-9.73-9.2-16.21.46c-7.67,11.42-14.66,21.93-22.73,30.11a16.233,16.233,0,0,0-3.64,6.24q-.55-3.05,2.23-7.03,10.75-15.4,21.19-31.04C446.8,483.09,457.19,483.01,460.87,491.97Z" fill="#18d2dc"/>
      <path id="Tracé_134" data-name="Tracé 134" d="M646.45,486.5a1.925,1.925,0,0,1-1.72.97.934.934,0,0,1-.8-.11q-31.69.37-63.4,1.43c-4.52.15-7.39,1.83-8.79,6q-10.27,30.63-19.29,54.4a37.18,37.18,0,0,1-3.65,5.97.761.761,0,0,1-.73.34l-.71-.06q8.39-26.75,16.87-53.48c2.66-8.39,3.32-16.18,14.18-16.19q29.17-.05,58.34,0A67.769,67.769,0,0,1,646.45,486.5Z" fill="#faf9f8"/>
      <path id="Tracé_135" data-name="Tracé 135" d="M646.45,486.5a6.963,6.963,0,0,1,.37,4.78q-4.75,15.41-17.27,53.53c-2.55,7.79-3.98,14.24-13.51,14.32q-30.99.25-61.97.3a4.78,4.78,0,0,1-3.29-.88c26.18-3.88,49.23-12.72,67.44-32.57a155.273,155.273,0,0,0,24.5-35.49c.53-1.06,1.58-1.69,2.01-3.02A1.925,1.925,0,0,0,646.45,486.5Z" fill="#4f4f4d"/>
      <path id="Tracé_136" data-name="Tracé 136" d="M644.73,487.47c-.43,1.33-1.48,1.96-2.01,3.02a155.273,155.273,0,0,1-24.5,35.49c-18.21,19.85-41.26,28.69-67.44,32.57a4.81,4.81,0,0,1-2.28.17,1.065,1.065,0,0,1-.77-.46,3.277,3.277,0,0,1-.37-2.82l.71.06a.761.761,0,0,0,.73-.34,37.18,37.18,0,0,0,3.65-5.97q9.02-23.77,19.29-54.4c1.4-4.17,4.27-5.85,8.79-6q31.71-1.06,63.4-1.43A.934.934,0,0,0,644.73,487.47Zm-33.82,34.54a11.2,11.2,0,1,0-11.2,11.2,11.2,11.2,0,0,0,11.2-11.2Z" fill="#9f9e9c"/>
      <path id="Tracé_137" data-name="Tracé 137" d="M460.87,491.97q1.74,1.78,1.19,6.05c-.62,4.72-2.99,8.2-5.45,12.32q-7.01,11.78-14.94,22.97a.61.61,0,0,1-.76.25,85.148,85.148,0,0,1-10.12-4.12c-4.08-1.98-6.07-1.39-10.09-.02q-2.08.71-2.41-.64a16.233,16.233,0,0,1,3.64-6.24c8.07-8.18,15.06-18.69,22.73-30.11Q451.14,482.77,460.87,491.97Z" fill="#1b9e9f"/>
      <path id="Tracé_138" data-name="Tracé 138" d="M464.43,509.56l2.51,24.86a10.7,10.7,0,0,1-4.89,3.47q-.55.23-.61-.36C460.66,530.22,458.65,515.87,464.43,509.56Z" fill="#214f54"/>
      <path id="Tracé_139" data-name="Tracé 139" d="M610.91,522.01a11.2,11.2,0,1,1-11.2-11.2,11.2,11.2,0,0,1,11.2,11.2Zm-5.32.08a5.97,5.97,0,1,0-5.97,5.97,5.97,5.97,0,0,0,5.97-5.97Z" fill="#15151c"/>
      <circle id="Ellipse_3" data-name="Ellipse 3" cx="5.97" cy="5.97" r="5.97" transform="translate(593.65 516.12)" fill="#9f9e9c"/>
      <path id="Tracé_140" data-name="Tracé 140" d="M447.25,535.83l6.88-10.03a.31.31,0,0,1,.57.17l.26,12.16a.31.31,0,0,1-.39.31l-7.15-2.13a.31.31,0,0,1-.17-.48Z" fill="#214f54"/>
      <path id="Tracé_141" data-name="Tracé 141" d="M420.63,548.45c-3.65-1.85-6.25-4.26-5.06-8.74,1.67-6.26,6.73-6.21,12.12-7.23q.74-.13.19.38a21.185,21.185,0,0,0-6.87,15.36Q421,548.64,420.63,548.45Z" fill="#214f54"/>
      <path id="Tracé_142" data-name="Tracé 142" d="M498.57,545.96l-4.6.82a.74.74,0,0,0-.54.39,4.315,4.315,0,0,1-2.15,2,.683.683,0,0,1-.76-.13l-6.46-5.81a1.825,1.825,0,0,0-2.28-.13c-3.33,2.37-6.38,4.62-10.64,5.07a92.231,92.231,0,0,1-21.65-.25,1.562,1.562,0,0,1-.82-.36,1.292,1.292,0,0,0-.68-.36,112.546,112.546,0,0,1-19.13-2.2q.16-3.31,3.77-4.93a1.594,1.594,0,0,1,.98-.11q9.54,2.01,18.88,4.55c3.67,1,8.88,1.94,12.21-.44q5.41-3.85,12.74-8.62C485.24,530.38,492.35,539.39,498.57,545.96Z" fill="#ffdcb1"/>
      <path id="Tracé_143" data-name="Tracé 143" d="M498.57,545.96a10.69,10.69,0,0,1,.61,4.22.591.591,0,0,1-.66.61l-11.34-.01-6.34-3.22a1.969,1.969,0,0,0-2.047.148,1.749,1.749,0,0,0-.683,1.842q.27,1.1-1.13,1.42-19.47.75-38.99-.08c-3.83-.16-10.77-.06-9.13-5.89a112.546,112.546,0,0,0,19.13,2.2,1.292,1.292,0,0,1,.68.36,1.563,1.563,0,0,0,.82.36,92.231,92.231,0,0,0,21.65.25c4.26-.45,7.31-2.7,10.64-5.07a1.825,1.825,0,0,1,2.28.13l6.46,5.81a.683.683,0,0,0,.76.13,4.315,4.315,0,0,0,2.15-2,.74.74,0,0,1,.54-.39Z" fill="#b78b6e"/>
      <path id="Tracé_144" data-name="Tracé 144" d="M487.18,550.78a33.3,33.3,0,0,1-10.2.19q1.4-.32,1.13-1.42a1.749,1.749,0,0,1,.683-1.842,1.969,1.969,0,0,1,2.047-.148Z" fill="#473830"/>
      <rect id="Rectangle_7" data-name="Rectangle 7" width="106.56" height="3.44" rx="0.67" transform="translate(434.33 557.74)" fill="#faf9f8"/>
      <path id="Tracé_145" data-name="Tracé 145" d="M268.96,578.55a1.84,1.84,0,0,1-1.87-1.84v-14.9a1.054,1.054,0,0,1,.59-.99,3.6,3.6,0,0,1,3.93.09,1.075,1.075,0,0,1,.5.89l.2,9.96a1.52,1.52,0,0,0,1.51,1.48l9.38.03a.88.88,0,0,1,.87.86l.07,3.33a.751.751,0,0,1-.84.86Z" fill="#ffdcb1"/>
      <path id="Tracé_146" data-name="Tracé 146" d="M745.35,572.41l.34-10.87a.8.8,0,0,1,.82-.86l3.11-.24a.665.665,0,0,1,.72.59,73.537,73.537,0,0,1-.03,16.2,1.02,1.02,0,0,1-.9.9,75.929,75.929,0,0,1-12.94.21q-3.21-.22-2.32-3.7a1.7,1.7,0,0,1,1.75-1.41l8.94-.31a.53.53,0,0,0,.51-.51Z" fill="#ffdcb1"/>
      <path id="Tracé_147" data-name="Tracé 147" d="M347.69,574.06c-3.35-1.81-3.3-6.67,1.12-6.94q2.35-.14,4.69-.15c103.01-.3,206,.12,309-.33q4.53-.02,9.04.27c6.01.38,4.61,7.42-.67,7.46-105.4.88-197.44.9-316.47.28C352.69,574.64,349.48,575.03,347.69,574.06Z" fill="#826055"/>
      <path id="Tracé_148" data-name="Tracé 148" d="M373.48,584.51a.46.46,0,0,1-.62.18l-.14-.07c-1.183-.634-1.9-1.6-1.6-2.15l.08-.16c.3-.554,1.5-.492,2.68.14l.13.07a.46.46,0,0,1,.19.63Z" fill="#1b9e9f"/>
      <path id="Tracé_149" data-name="Tracé 149" d="M649.14,582.13a.32.32,0,0,1,.29.19q1.19,2.88-2.12,1.96a1.073,1.073,0,0,1-.785-1.178,1.1,1.1,0,0,1,1.065-.952Z" fill="#18d2dc"/>
      <path id="Tracé_150" data-name="Tracé 150" d="M449.53,596.31a.24.24,0,0,1-.24-.24l.01-9.26a7.1,7.1,0,0,1,.559-2.888c.356-.765.839-1.194,1.341-1.192l109.74.2c1.042.005,1.883,1.83,1.88,4.08l-.01,9.26a.24.24,0,0,1-.24.24Z" fill="#214f54"/>
      <path id="Tracé_151" data-name="Tracé 151" d="M421.57,601.63c-1.95-5.54-5.71-9.3-11.77-9.47q-14.88-.41-29.91-.01l.23-8.46a.5.5,0,0,1,.57-.54l60.04.12q.39,0,.38.38-.04,4.55-2.76,6.45Q430.06,595.93,421.57,601.63Z" fill="#473830"/>
      <path id="Tracé_152" data-name="Tracé 152" d="M587.99,582.99a.81.81,0,0,1,.81.81l-.01,3.99a6.593,6.593,0,0,1-.445,2.493c-.283.66-.667,1.03-1.065,1.027l-17.92-.04c-.826-.007-1.493-1.581-1.49-3.52l.01-3.99a.81.81,0,0,1,.81-.81Z" fill="#473830"/>
      <path id="Tracé_153" data-name="Tracé 153" d="M643.31,592.27q-24.98-1.04-48.52-.28l-.23-7.3a1.227,1.227,0,0,1,1.38-1.43l44.98-.33a.906.906,0,0,1,1.01.84Z" fill="#473830"/>
      <path id="Tracé_154" data-name="Tracé 154" d="M643.31,592.27,629.53,603.7a1.335,1.335,0,0,1-.84.3H595.72a.586.586,0,0,1-.66-.64l-.27-11.37Q618.33,591.23,643.31,592.27Z" fill="#826055"/>
      <path id="Tracé_155" data-name="Tracé 155" d="M421.57,601.63q-2.17,2.32-3.9,2.33-18.46.12-37.12.01a.521.521,0,0,1-.59-.59l-.07-11.23q15.03-.4,29.91.01C415.86,592.33,419.62,596.09,421.57,601.63Z" fill="#826055"/>
    </g>
    <text id="GRÉGOIRE_BIENDINÉ" data-name="GRÉGOIRE BIENDINÉ" transform="translate(960 573)" fill="#70573a" font-size="80" font-family="SegoeUI-Bold, Segoe UI" font-weight="700" letter-spacing="0.05em"><tspan x="0" y="0">GRÉGOIRE BIENDINÉ</tspan></text>
  </g>
</svg>
