<svg id="background" xmlns="http://www.w3.org/2000/svg" xmlns:xlink="http://www.w3.org/1999/xlink" width="1920" height="1080" viewBox="0 0 1920 1080">
  <defs>
    <clipPath id="clip-path">
      <rect id="fond" width="1920" height="1080" fill="none"/>
    </clipPath>
  </defs>
  <g id="Groupe_de_masques_1" data-name="Groupe de masques 1" clip-path="url(#clip-path)">
    <g id="bg">
      <g id="blobs">
        <g id="Groupe_4" data-name="Groupe 4" transform="translate(94 992.295)">
          <path id="Tracé_79" data-name="Tracé 79" d="M22.6-15.1C30.4-8.2,38.7,1.3,37.4,9.1,36,16.8,25,22.9,13.9,27.8c-11,4.9-22.1,8.5-29.6,4.8C-23.2,29-27.2,18.1-28.4,7.9c-1.1-10.1.5-19.4,5.7-25.8,5.2-6.3,14-9.5,22-9C7.4-26.4,14.7-22,22.6-15.1Z" fill="none" stroke="#252525" stroke-width="5"/>
        </g>
        <g id="Groupe_6" data-name="Groupe 6" transform="matrix(-0.53, -0.848, 0.848, -0.53, 1732.26, 783.836)">
          <path id="Tracé_81" data-name="Tracé 81" d="M-14.133-73.642C-6.945-63.508-5.8-49.58-9.84-38.947-13.934-28.264-23.219-20.876-32.9-17.431c-9.685,3.494-19.768,3-31.15-.349s-24.112-9.535-29.2-20.667C-98.3-49.53-95.7-65.555-86.867-76.088c8.786-10.533,23.862-15.575,38.039-14.876C-34.7-90.265-21.372-83.825-14.133-73.642Z" transform="translate(0 0)" fill="none" stroke="#252525" stroke-width="5"/>
        </g>
        <g id="Groupe_7" data-name="Groupe 7" transform="matrix(-0.53, -0.848, 0.848, -0.53, 412.176, 285.12)">
          <path id="Tracé_82" data-name="Tracé 82" d="M10.3-43.106C20.507-32.7,29.41-18.932,28.245-4.825c-1.1,14.176-12.327,28.557-26.3,34.172-14.039,5.616-30.885,2.4-45.4-4.931C-58.042,17.158-70.3,5.859-72.217-6.605-74.066-19.069-65.575-32.7-55.645-43.037c10-10.409,21.366-17.463,32.871-17.463C-11.337-60.569.1-53.515,10.3-43.106Z" fill="none" stroke="#252525" stroke-width="5"/>
        </g>
        <g id="Groupe_8" data-name="Groupe 8" transform="matrix(-0.53, -0.848, 0.848, -0.53, 1478.872, 456.742)">
          <path id="Tracé_83" data-name="Tracé 83" d="M-25.261-64.155c5.712,8.359,7.2,18.808,5.2,28.839-2,10.077-7.477,19.69-15.836,23.916-8.359,4.272-19.551,3.111-31.022-1.022-11.517-4.18-23.266-11.331-26.61-21.687-3.39-10.356,1.672-23.87,10.217-32.879,8.545-8.963,20.573-13.421,31.533-12.539A36.079,36.079,0,0,1-25.261-64.155Z" fill="none" stroke="#252525" stroke-width="5"/>
        </g>
        <g id="Groupe_22" data-name="Groupe 22" transform="translate(525.461 929.443)">
          <path id="Tracé_93" data-name="Tracé 93" d="M-22.831-51.774C-13.5-50.086.1-47.412,3.293-41.128,6.483-34.89-.693-24.993-7.823-17.3-14.9-9.609-21.893-4.028-30.007-.6-38.168,2.82-47.455,4.086-53.74.381c-6.332-3.705-9.615-12.429-13.977-20.309C-72.126-27.854-77.66-34.983-78.973-43.8c-1.36-8.865,1.5-19.371,8.349-21.481,6.8-2.111,17.682,4.127,25.609,7.645C-37.136-54.166-32.118-53.463-22.831-51.774Z" transform="translate(0)" fill="none" stroke="#252525" stroke-width="5"/>
        </g>
        <g id="Groupe_23" data-name="Groupe 23" transform="translate(1562.203 968.263)">
          <path id="Tracé_94" data-name="Tracé 94" d="M-16.047-69.661C-5.4-63.618,7.483-57.308,11.387-47.522c3.9,9.733-1.123,22.888-8.556,33.851-7.38,10.909-17.059,19.626-28.45,23.8-11.337,4.171-24.386,3.85-31.766-2.888C-64.765.554-66.423-12.548-73-23.136-79.632-33.778-91.183-41.907-93.482-51.8c-2.3-9.947,4.706-21.6,14.546-27.755S-56.369-86.4-45.78-83.886C-35.245-81.373-26.742-75.651-16.047-69.661Z" fill="#252525"/>
        </g>
        <g id="Groupe_25" data-name="Groupe 25" transform="translate(229.686 806.916)">
          <path id="Tracé_96" data-name="Tracé 96" d="M3.454-48.713c9.56,4.988,22.624,8.907,26.247,16.389s-2.138,18.586-8.67,28.681C14.558,6.453,7.254,15.479-2.069,18.8A29.591,29.591,0,0,1-29.86,13.757c-7.185-6-10.154-15.677-11.579-23.575S-42.686-23.891-43.7-32.323c-.95-8.492-3.147-19.24.891-25.237s14.252-7.185,22.387-4.751C-12.223-59.876-6.107-53.76,3.454-48.713Z" fill="#252525"/>
        </g>
        <g id="Groupe_26" data-name="Groupe 26" transform="translate(1823.264 395.627) rotate(-115)">
          <path id="Tracé_94-2" data-name="Tracé 94" d="M-16.047-69.661C-5.4-63.618,7.483-57.308,11.387-47.522c3.9,9.733-1.123,22.888-8.556,33.851-7.38,10.909-17.059,19.626-28.45,23.8-11.337,4.171-24.386,3.85-31.766-2.888C-64.765.554-66.423-12.548-73-23.136-79.632-33.778-91.183-41.907-93.482-51.8c-2.3-9.947,4.706-21.6,14.546-27.755S-56.369-86.4-45.78-83.886C-35.245-81.373-26.742-75.651-16.047-69.661Z" fill="#252525"/>
        </g>
      </g>
      <g id="ma" transform="translate(-234.988 667.989)" opacity="0.06">
        <path id="path7" d="M136.263,109.068c32.282-24.512,57.979-53.311,80.7-84.057l-37.548,83.495,3.768,9.094,35.459-30.95v88.544L179.413,211.62l10.651-74.533L175.49,155.022l-8.4-18.493Q136.269,203.216,105.444,269.9c-2.225,4.894,2.87,8.6,7.282,5.039l28.586-23.532-114.324,116L146.913,135.967l20.73-40.345c.472-.863,0-3.443-2.8-2.584l-28.579,16.03Z" transform="translate(1228.177 227.921)" fill="#fff" fill-rule="evenodd"/>
        <path id="path23" d="M448.879,25.844C467.45,42.37,486.391,58.527,505.987,74.03q-9.814-5.737-19.631-11.474c-2.173-1.088-5.368,0-3.06,4.42,33.839,63.505,68.351,126.745,101.47,190.619Q541.446,217.129,501.4,178.3l28.046,17.338c3.344,1.407,5.5-1.333,2.039-6.887l-33.906-70.364-5.864-11.728-7.906-.254,7.395,47.166-22.8-26.44L464.5,53.91,448.879,25.844Zm31.988,64.284h4.494l-6.533-10.634,2.039,10.634Z" transform="translate(455 -761)" fill="#fff" fill-rule="evenodd"/>
      </g>
    </g>
  </g>
</svg>
